<svg width="390" height="184" viewBox="0 0 390 184" fill="none" xmlns="http://www.w3.org/2000/svg">
<path fill-rule="evenodd" clip-rule="evenodd" d="M363.815 111.457C353.044 115.314 210.015 168.413 210.015 168.413L206.784 169.547C202.045 171.136 197.09 168.413 195.583 163.421C194.075 158.428 196.229 153.663 196.229 153.663L231.771 26.8172C231.771 26.8172 232.848 22.0519 236.294 18.1944C239.31 15.0176 244.049 14.1099 248.357 15.9252L258.266 21.825L364.03 90.5806C364.03 90.5806 367.477 92.6228 368.984 93.9843C370.923 95.7997 372 98.2957 372 101.019C372 104.649 370.061 107.826 367.261 109.415C365.322 110.776 363.168 111.457 363.815 111.457Z" fill="url(#paint0_linear_48_294)"/>
<path opacity="0.27" fill-rule="evenodd" clip-rule="evenodd" d="M361.23 106.692C356.706 108.28 210.015 163.194 210.015 163.194L207.214 164.329C200.106 166.598 197.306 160.925 198.598 155.479C200.752 147.31 232.632 30.6749 232.632 30.6749C232.632 30.6749 233.925 24.3213 236.725 21.1445C238.018 19.783 240.172 19.1022 242.11 19.3291C247.926 20.0099 255.035 26.3635 298.977 54.2742C327.626 72.4275 360.368 93.5307 363.815 95.5729C370.061 99.2036 368.123 104.196 361.23 106.692Z" fill="url(#paint1_radial_48_294)"/>
<path fill-rule="evenodd" clip-rule="evenodd" d="M298.977 54.0469C247.926 62.8966 208.938 107.145 208.938 160.471C208.938 161.605 208.938 162.513 208.938 163.647H209.153C209.584 163.42 210.015 163.194 210.015 163.194C210.015 163.194 356.491 108.507 361.23 106.691C368.123 104.195 370.061 99.2032 363.815 95.1187C329.35 73.3347 298.977 54.0469 298.977 54.0469Z" fill="url(#paint2_linear_48_294)"/>
<path fill-rule="evenodd" clip-rule="evenodd" d="M45.8754 80.5967C44.583 80.5967 39.4132 80.5967 39.4132 80.5967C35.7513 80.5967 34.2435 83.3197 34.2435 83.3197L32.0894 88.7657C43.7214 84.0004 46.737 88.7657 45.8754 91.4886C45.0138 94.2116 43.7213 95.5731 37.9054 96.4808C32.0894 97.3885 21.9654 97.3885 17.8726 108.28C13.7799 119.172 25.4118 118.945 25.4118 118.945C42.8597 118.945 48.2449 104.65 48.2449 104.65C48.2449 104.65 50.1835 98.2961 52.553 90.3541C54.7071 83.0928 49.1065 80.5967 45.8754 80.5967ZM29.5046 112.819C29.5046 112.819 23.6886 113.273 24.1194 108.961C24.5502 104.65 29.9354 101.927 33.1665 101.927C37.0438 101.7 41.9981 100.792 43.0751 99.2038C43.0751 99.2038 42.2135 112.819 29.5046 112.819Z" fill="white"/>
<path fill-rule="evenodd" clip-rule="evenodd" d="M114.805 90.3541C116.959 83.0928 111.359 80.5967 108.128 80.5967C106.835 80.5967 101.666 80.5967 101.666 80.5967C98.0038 80.5967 96.4959 83.3197 96.4959 83.3197L94.3419 88.7657C105.974 84.0004 108.989 88.7657 108.128 91.4886C107.266 94.2116 105.974 95.5731 100.158 96.4808C94.3419 97.3885 84.2178 97.3885 80.1251 108.28C76.0324 118.945 87.6643 118.719 87.6643 118.719C105.112 118.719 110.497 104.423 110.497 104.423C110.497 104.423 112.436 98.2961 114.805 90.3541ZM91.757 112.819C91.757 112.819 85.941 113.273 86.3718 108.961C86.8027 104.65 92.1878 101.927 95.4189 101.927C99.2962 101.7 104.251 100.792 105.328 99.2038C105.328 99.2038 104.466 112.819 91.757 112.819Z" fill="white"/>
<path fill-rule="evenodd" clip-rule="evenodd" d="M200.106 80.5967C198.814 80.5967 193.644 80.5967 193.644 80.5967C189.982 80.5967 188.474 83.3197 188.474 83.3197L186.32 88.7657C197.952 84.0004 200.968 88.7657 200.106 91.4886C199.245 94.2116 197.952 95.5731 192.136 96.4808C186.32 97.3885 176.196 97.3885 172.103 108.28C168.011 119.172 179.643 118.945 179.643 118.945C197.09 118.945 202.476 104.65 202.476 104.65C202.476 104.65 204.414 98.2961 206.784 90.3541C209.153 83.0928 203.337 80.5967 200.106 80.5967ZM183.735 112.819C183.735 112.819 177.919 113.273 178.35 108.961C178.781 104.65 184.166 101.927 187.397 101.927C191.274 101.7 196.229 100.792 197.306 99.2038C197.306 99.2038 196.66 112.819 183.735 112.819Z" fill="white"/>
<path fill-rule="evenodd" clip-rule="evenodd" d="M134.407 80.5967C126.437 80.5967 117.821 87.4042 115.236 95.8001L108.128 118.719H114.805L122.129 95.1193C123.422 90.8079 127.945 87.1772 132.253 87.1772C136.346 87.1772 138.715 90.8079 137.423 95.1193L130.099 118.492L136.992 118.719L144.1 95.5731C146.685 87.4042 142.377 80.5967 134.407 80.5967Z" fill="white"/>
<path fill-rule="evenodd" clip-rule="evenodd" d="M82.0636 80.5967L63.5386 109.642V80.5967H56.2148L57.5073 118.945H64.1849L89.6028 80.5967H82.0636Z" fill="white"/>
<path fill-rule="evenodd" clip-rule="evenodd" d="M149.27 111.911L178.565 84.9081L179.858 80.5967H151.64L149.486 86.2696H169.518L139.792 113.046L137.854 118.945H169.518L167.58 111.911H149.27Z" fill="white"/>
<path d="M78.1866 135.738C77.9713 135.965 77.9707 136.191 77.7554 136.418C77.5401 136.645 77.3248 136.872 77.1096 136.872C76.8942 137.099 76.6783 137.098 76.6783 137.098V136.644C76.8934 136.418 77.1091 136.418 77.3241 136.192C77.5395 135.965 77.5408 135.736 77.5408 135.51H76.6783V133.923H78.1866V135.738Z" fill="white"/>
<path fill-rule="evenodd" clip-rule="evenodd" d="M63.3227 128.93C63.7533 128.93 64.1843 129.156 64.3998 129.156C64.6151 129.156 64.8303 129.384 65.0456 129.611C65.261 129.611 65.4768 129.838 65.4768 130.065C65.6921 130.292 65.6935 130.518 65.6935 130.745C65.6935 130.972 65.6922 131.427 65.4768 131.654C65.2616 132.106 65.0466 132.108 64.6164 132.334C64.8315 132.335 65.0472 132.562 65.2622 132.788C65.4769 133.016 65.4768 133.47 65.4768 133.923V135.058C65.486 135.067 65.6935 135.294 65.6935 135.738V135.964H63.9685V134.149C63.9685 133.695 63.9694 133.467 63.754 133.24C63.5387 133.014 63.3221 133.014 62.8915 133.014H61.3854V135.51H59.8771V128.93H63.3227ZM61.3854 131.654H63.754C63.9692 131.654 64.1849 131.426 64.1852 131.199C64.1852 130.746 63.9694 130.518 63.754 130.291C63.7536 130.065 63.3237 130.065 63.1082 130.065H61.3854V131.654Z" fill="white"/>
<path fill-rule="evenodd" clip-rule="evenodd" d="M152.933 128.93C153.363 128.931 153.795 129.156 154.01 129.156C154.225 129.157 154.441 129.384 154.656 129.611C154.871 129.611 155.087 129.838 155.087 130.065C155.302 130.292 155.301 130.519 155.301 130.745C155.301 130.972 155.302 131.427 155.087 131.654C154.872 132.107 154.655 132.107 154.224 132.334C154.44 132.334 154.655 132.561 154.87 132.788C155.085 133.015 155.087 133.469 155.087 133.923V135.058C155.101 135.073 155.301 135.3 155.301 135.738V135.964H153.579V134.149C153.579 133.695 153.577 133.467 153.362 133.24C153.147 133.014 152.932 133.014 152.502 133.014H150.993V135.51H149.485V128.93H152.933ZM150.993 131.654H153.362C153.577 131.654 153.793 131.426 153.793 131.199C153.793 130.746 153.577 130.518 153.362 130.291C153.362 130.064 152.932 130.065 152.716 130.065H150.993V131.654Z" fill="white"/>
<path d="M34.8887 129.156C35.535 129.156 36.182 129.157 36.8282 129.611C37.4743 130.064 37.6907 130.519 37.6907 131.199H36.1824C36.1824 130.746 35.967 130.518 35.5366 130.291C35.3213 130.064 35.1049 130.065 34.6742 130.065C34.4588 130.065 34.0271 130.064 33.8117 130.291C33.5966 130.518 33.3829 130.745 33.3826 130.971C33.3826 131.198 33.5964 131.199 33.8117 131.426C33.8117 131.426 34.2434 131.652 34.6742 131.652L35.9658 131.88C36.612 131.88 37.0441 132.107 37.2595 132.334C37.6898 132.561 37.9046 133.015 38.1198 133.469C38.1195 134.149 37.6899 134.602 37.2595 135.055C36.8287 135.509 35.9669 135.738 35.1054 135.738C34.0284 135.738 33.3809 135.509 32.7347 135.055C32.0894 134.602 31.8745 134.149 31.8743 133.469H33.3826C33.3826 133.695 33.382 133.922 33.5972 134.149C33.8126 134.376 34.2432 134.603 34.8887 134.603H35.7512C36.182 134.603 36.397 134.375 36.397 133.921C36.397 133.695 36.3969 133.695 36.1824 133.469C35.9671 133.469 35.5361 133.241 35.1054 133.24L34.2429 133.014C33.5968 133.014 32.9501 132.787 32.7347 132.56C32.3045 132.333 32.0891 131.879 32.0889 131.199C32.0889 130.746 32.304 130.29 32.7347 129.837C33.1654 129.383 34.0274 129.156 34.8887 129.156Z" fill="white"/>
<path d="M94.5566 129.156C95.2028 129.156 95.8499 129.157 96.4961 129.611C97.1421 130.064 97.3586 130.519 97.3586 131.199H95.8503C95.8503 130.746 95.6348 130.518 95.2045 130.291C94.9891 130.064 94.7728 130.065 94.342 130.065C94.1266 130.065 93.695 130.064 93.4796 130.291C93.2644 130.518 93.0507 130.745 93.0504 130.971C93.0504 131.198 93.2643 131.199 93.4796 131.426C93.4796 131.426 93.9112 131.652 94.342 131.652L95.6336 131.88C96.2799 131.88 96.7119 132.107 96.9273 132.334C97.3576 132.561 97.5724 133.015 97.7877 133.469C97.7873 134.149 97.3577 134.602 96.9273 135.055C96.4966 135.509 95.6347 135.738 94.7733 135.738C93.6962 135.738 93.0488 135.509 92.4025 135.055C91.7573 134.602 91.5424 134.149 91.5422 133.469H93.0504C93.0504 133.695 93.0499 133.922 93.265 134.149C93.4804 134.376 93.9111 134.603 94.5566 134.603H95.4191C95.8498 134.603 96.0649 134.375 96.0649 133.921C96.0649 133.695 96.0647 133.695 95.8503 133.469C95.635 133.469 95.2039 133.241 94.7733 133.24L93.9108 133.014C93.2647 133.014 92.6179 132.787 92.4025 132.56C91.9723 132.333 91.7569 131.879 91.7568 131.199C91.7568 130.746 91.9718 130.29 92.4025 129.837C92.8332 129.383 93.6952 129.156 94.5566 129.156Z" fill="white"/>
<path d="M165.857 129.156C166.503 129.156 167.149 129.157 167.795 129.611C168.441 130.064 168.657 130.519 168.657 131.199H167.149C167.149 130.746 166.934 130.518 166.503 130.291C166.288 130.064 166.071 130.065 165.641 130.065C165.425 130.065 164.996 130.065 164.78 130.291C164.565 130.518 164.349 130.744 164.349 130.971C164.349 131.198 164.565 131.199 164.78 131.426C164.799 131.436 165.22 131.651 165.641 131.652L166.934 131.88C167.58 131.88 168.011 132.107 168.226 132.334C168.656 132.561 168.873 133.015 169.088 133.469C169.088 134.149 168.656 134.602 168.226 135.055C167.795 135.509 166.933 135.738 166.072 135.738C164.995 135.738 164.349 135.509 163.703 135.055C163.057 134.602 162.841 134.149 162.841 133.469H164.349C164.349 133.695 164.348 133.922 164.564 134.149C164.779 134.376 165.211 134.603 165.857 134.603H166.718C167.148 134.603 167.363 134.375 167.363 133.921C167.363 133.695 167.364 133.695 167.149 133.469C166.933 133.469 166.503 133.24 166.072 133.24L165.209 133.014C164.564 133.014 163.919 132.787 163.703 132.56C163.273 132.333 163.055 131.88 163.055 131.199C163.055 130.746 163.272 130.291 163.703 129.837C164.134 129.383 164.996 129.156 165.857 129.156Z" fill="white"/>
<path fill-rule="evenodd" clip-rule="evenodd" d="M31.2285 135.51H29.5036L29.0745 134.149H26.4892L26.0579 135.51H24.5497L27.135 128.93H28.6432L31.2285 135.51ZM27.135 133.014H28.8578L27.9974 130.519L27.135 133.014Z" fill="white"/>
<path d="M44.3674 130.065H40.4906V131.426H43.9362V132.56H40.4906V134.375H44.3674V135.51H38.9823V128.93H44.3674V130.065Z" fill="white"/>
<path d="M48.2443 128.93C48.8906 128.93 49.5376 128.931 50.1838 129.385C50.8294 129.838 51.0461 130.291 51.0463 130.971H49.538C49.5378 130.518 49.3222 130.292 48.8922 130.065C48.6768 129.838 48.4605 129.837 48.0298 129.837C47.8144 129.837 47.3827 129.838 47.1673 130.065C46.9521 130.292 46.7382 130.519 46.7382 130.745C46.7382 130.972 46.952 130.973 47.1673 131.199C47.1673 131.199 47.599 131.426 48.0298 131.426L49.3214 131.88C49.9676 131.88 50.3997 132.107 50.6151 132.334C51.045 132.561 51.2604 133.013 51.4754 133.24C51.4754 133.921 51.0457 134.376 50.6151 134.829C50.1843 135.283 49.3225 135.509 48.461 135.51C47.384 135.51 46.7365 135.283 46.0903 134.829C45.4446 134.376 45.2299 133.921 45.2299 133.24H46.7382C46.7382 133.467 46.7373 133.696 46.9527 133.923C47.1682 134.15 47.5991 134.375 48.2443 134.375H49.1068C49.5375 134.375 49.7526 134.148 49.7526 133.695C49.7526 133.468 49.7533 133.467 49.538 133.24C49.3227 133.24 48.8916 133.015 48.461 133.014L47.5985 132.788C46.9524 132.788 46.3056 132.561 46.0903 132.334C45.6597 132.107 45.4445 131.652 45.4445 130.971C45.4447 130.518 45.66 130.064 46.0903 129.611C46.521 129.157 47.383 128.93 48.2443 128.93Z" fill="white"/>
<path fill-rule="evenodd" clip-rule="evenodd" d="M55.3523 128.702C56.4293 128.702 57.0769 128.929 57.723 129.382C58.3691 130.063 58.7999 130.972 58.8001 132.106C58.8001 133.24 58.3691 134.149 57.723 134.829C57.2922 135.283 56.4293 135.51 55.3523 135.51C54.2758 135.509 53.6297 135.283 52.9837 134.829C52.3375 134.149 51.9067 133.24 51.9067 132.106C51.9068 130.972 52.3376 130.063 52.9837 129.382C53.4145 128.929 54.2761 128.702 55.3523 128.702ZM55.3523 129.611C54.7068 129.611 54.2766 129.838 53.8461 130.291C53.4155 130.745 53.1984 131.425 53.1982 132.106C53.1982 133.013 53.4154 133.467 53.8461 133.921C54.2768 134.374 54.7066 134.603 55.3523 134.603C55.9985 134.603 56.4298 134.375 56.8606 133.921C57.0759 133.467 57.2918 133.013 57.2918 132.106C57.2918 131.199 57.2913 130.745 56.8606 130.291C56.4298 129.837 55.9984 129.611 55.3523 129.611Z" fill="white"/>
<path d="M68.2788 135.51H66.7705V128.93H68.2788V135.51Z" fill="white"/>
<path fill-rule="evenodd" clip-rule="evenodd" d="M76.0325 135.51H74.3097L73.8785 134.149H71.0786L70.6474 135.51H69.1391L71.7244 128.93H73.4472L76.0325 135.51ZM71.5078 133.014H73.2327L72.3702 130.519L71.5078 133.014Z" fill="white"/>
<path d="M90.6797 135.51H89.1715V128.93H90.6797V135.51Z" fill="white"/>
<path d="M103.819 130.065H100.158V131.426H103.604V132.56H100.158V134.375H104.035V135.51H98.6502V128.93H103.819V130.065Z" fill="white"/>
<path d="M109.635 133.469V128.93H110.929V135.51H109.42L106.404 130.745V135.51H105.112V128.93H106.621L109.635 133.469Z" fill="white"/>
<path fill-rule="evenodd" clip-rule="evenodd" d="M115.451 128.702C116.528 128.702 117.391 128.929 117.822 129.382C118.468 130.063 118.899 130.972 118.899 132.106C118.899 133.24 118.468 134.149 117.822 134.829C117.391 135.283 116.528 135.51 115.451 135.51C114.375 135.51 113.729 135.283 113.083 134.829C112.437 134.149 112.006 133.24 112.006 132.106C112.006 130.972 112.437 130.063 113.083 129.382C113.514 128.929 114.375 128.702 115.451 128.702ZM115.451 129.611C114.805 129.611 114.374 129.837 113.943 130.291C113.513 130.745 113.297 131.425 113.297 132.106C113.297 133.013 113.513 133.467 113.943 133.921C114.374 134.374 114.805 134.603 115.451 134.603C116.098 134.603 116.529 134.375 116.96 133.921C117.39 133.467 117.391 133.013 117.391 132.106C117.391 131.199 117.39 130.745 116.96 130.291C116.529 129.837 116.098 129.611 115.451 129.611Z" fill="white"/>
<path d="M127.945 130.065H124.284V131.426H127.73V132.56H124.284V134.375H128.161V135.51H122.776V128.93H127.945V130.065Z" fill="white"/>
<path d="M133.33 135.51H131.824V128.93H133.33V135.51Z" fill="white"/>
<path d="M138.069 134.149L139.577 128.93H141.731V135.51H140.223V130.065L138.931 135.51H137.423L136.132 130.065V135.51H134.623V128.93H136.777L138.069 134.149Z" fill="white"/>
<path fill-rule="evenodd" clip-rule="evenodd" d="M146.039 128.93C146.686 128.93 147.332 128.931 147.762 129.385C148.193 129.838 148.409 130.292 148.194 131.199C148.193 131.88 147.978 132.561 147.548 132.788C147.332 133.015 146.684 133.24 145.823 133.24H144.317V135.51H142.808V128.93H146.039ZM144.317 132.106H145.608C146.039 132.106 146.255 132.107 146.471 131.88C146.686 131.653 146.901 131.425 146.685 130.971C146.685 130.745 146.686 130.517 146.471 130.291C146.255 130.064 146.039 130.065 145.608 130.065H144.317V132.106Z" fill="white"/>
<path d="M161.98 130.065H158.101V131.426H161.764V132.56H158.101V134.375H162.195V135.51H156.595V128.93H161.98V130.065Z" fill="white"/>
<path d="M171.242 135.51H169.734V128.93H171.242V135.51Z" fill="white"/>
<path fill-rule="evenodd" clip-rule="evenodd" d="M175.765 128.702C176.627 128.702 177.49 128.929 178.136 129.382C178.782 130.063 179.213 130.972 179.213 132.106C179.213 133.24 178.782 134.149 178.136 134.829C177.705 135.283 176.842 135.51 175.765 135.51C174.688 135.51 174.042 135.283 173.396 134.829C172.75 134.149 172.319 133.24 172.319 132.106C172.32 130.972 172.75 130.063 173.396 129.382C173.827 128.929 174.689 128.702 175.765 128.702ZM175.55 129.611C174.904 129.611 174.473 129.837 174.042 130.291C173.612 130.745 173.397 131.425 173.396 132.106C173.396 133.013 173.612 133.467 174.042 133.921C174.473 134.375 174.904 134.603 175.55 134.603C176.196 134.603 176.628 134.374 177.059 133.921C177.489 133.467 177.703 133.013 177.488 132.106C177.488 131.199 177.489 130.745 177.059 130.291C176.628 129.837 176.196 129.611 175.55 129.611Z" fill="white"/>
<path d="M181.796 128.93L184.596 133.469V128.93H186.104V135.51H184.596L181.581 130.745V135.51H180.073V128.93H181.796Z" fill="white"/>
<path fill-rule="evenodd" clip-rule="evenodd" d="M85.2946 128.702C85.7254 128.702 86.1562 128.93 86.3716 128.93C87.0173 129.157 87.4477 129.383 87.6632 129.837C87.8786 130.291 88.0944 130.518 88.0944 130.745C88.3098 131.199 88.3111 131.426 88.3111 131.88C88.311 132.787 88.094 133.468 87.6632 134.149C87.2322 134.829 86.3713 135.284 85.2946 135.284H82.0635V128.702H85.2946ZM83.5717 134.375H85.08C85.7256 134.375 86.3705 134.148 86.5862 133.469C86.5862 133.015 86.8028 132.56 86.8028 132.106C86.8027 131.425 86.5869 130.971 86.3716 130.517C86.1561 130.29 85.7253 130.065 85.08 130.065H83.5717V134.375Z" fill="white"/>
<path d="M110.066 127.341C109.851 127.568 109.85 127.795 109.635 128.022C109.42 128.249 109.205 128.25 108.775 128.25H108.127L107.698 128.022H107.05C107.042 128.031 106.84 128.258 107.05 128.702H106.404C106.404 128.475 106.405 128.248 106.621 128.022C106.836 127.795 107.051 127.568 107.481 127.568H107.912L108.343 127.796H108.775C108.988 127.795 109.2 127.572 109.204 127.568C109.419 127.568 109.42 127.341 109.42 127.341H110.066Z" fill="white"/>
<path d="M67.8475 128.248H66.7705L67.6309 126.887H69.3558L67.8475 128.248Z" fill="white"/>
<path d="M175.765 128.248H174.905L175.765 126.887H177.273L175.765 128.248Z" fill="white"/>
<path fill-rule="evenodd" clip-rule="evenodd" d="M238.448 79.9151C250.079 78.0999 256.758 88.9919 250.943 102.606C245.342 115.541 233.709 120.761 226.385 118.945C223.585 118.265 221.431 116.675 219.923 114.633L214.538 132.332H208.076L217.984 101.018C220.138 92.1682 228.109 81.7308 238.448 79.9151ZM271.19 81.0498C281.744 78.5539 288.422 87.404 284.76 99.6572C284.117 101.913 282.622 101.927 282.606 101.927H259.342C258.481 101.927 258.05 102.834 257.834 103.741C257.188 108.96 259.558 111.684 263.219 112.592C265.158 113.046 267.528 112.818 269.898 111.457C270.114 111.23 271.835 110.776 271.19 113.498C270.543 115.313 269.898 117.356 269.898 117.356C266.236 118.945 262.788 119.398 259.988 118.717C253.742 117.355 250.512 110.548 252.235 102.152C253.958 93.9836 261.282 83.3192 271.19 81.0498ZM308.456 87.4033C300.918 87.4034 295.748 91.0339 294.455 95.3447L287.13 118.945L280.453 118.717L287.345 95.7998C289.93 87.404 299.193 80.5958 310.394 80.5957L308.456 87.4033ZM340.551 80.8242L333.443 103.741C330.858 112.137 322.457 118.945 314.488 118.945C306.518 118.945 302.209 112.137 304.794 103.741L311.902 80.5957L318.795 80.8242L311.471 104.195C310.179 108.507 312.549 112.138 316.642 112.138C320.95 112.137 325.474 108.506 326.766 104.195L334.088 80.5957L340.551 80.8242ZM245.126 100.563C248.141 91.9414 244.479 85.1348 237.802 86.042C231.34 86.95 225.74 93.9847 224.017 100.792C222.294 107.599 224.878 112.817 229.831 113.498C235.001 113.952 242.111 109.186 245.126 100.563ZM279.591 95.1192C280.237 88.9927 275.929 85.3618 270.329 86.7227C265.806 87.8572 262.143 91.9411 260.204 96.0254H278.514C279.375 96.0253 279.591 95.5727 279.591 95.1192Z" fill="white"/>
<defs>
<linearGradient id="paint0_linear_48_294" x1="195.154" y1="92.3991" x2="372.137" y2="92.3991" gradientUnits="userSpaceOnUse">
<stop offset="0.2184" stop-color="#C12E35"/>
<stop offset="0.9954" stop-color="#6F1A1A"/>
</linearGradient>
<radialGradient id="paint1_radial_48_294" cx="0" cy="0" r="1" gradientUnits="userSpaceOnUse" gradientTransform="translate(243.203 44.4465) scale(135.67 142.919)">
<stop stop-color="white"/>
<stop offset="0.9958" stop-color="white" stop-opacity="0"/>
</radialGradient>
<linearGradient id="paint2_linear_48_294" x1="261.913" y1="43.6044" x2="303.379" y2="168.44" gradientUnits="userSpaceOnUse">
<stop offset="0.2184" stop-color="#C12E35"/>
<stop offset="0.9954" stop-color="#6F1A1A"/>
</linearGradient>
</defs>
</svg>
