<?xml version="1.0" encoding="utf-8"?>
<!-- Generator: Adobe Illustrator 23.0.1, SVG Export Plug-In . SVG Version: 6.00 Build 0)  -->
<svg version="1.1" id="Capa_1" xmlns="http://www.w3.org/2000/svg" xmlns:xlink="http://www.w3.org/1999/xlink" x="0px" y="0px"
	 viewBox="0 0 182 82.8" style="enable-background:new 0 0 182 82.8;" xml:space="preserve">
<style type="text/css">
	.st0{fill-rule:evenodd;clip-rule:evenodd;fill:url(#SVGID_1_);}
	.st1{opacity:0.27;fill-rule:evenodd;clip-rule:evenodd;fill:url(#SVGID_2_);}
	.st2{fill-rule:evenodd;clip-rule:evenodd;fill:url(#SVGID_3_);}
	.st3{fill-rule:evenodd;clip-rule:evenodd;fill:#211915;}
	.st4{fill-rule:evenodd;clip-rule:evenodd;fill:#FFFFFF;}
	.st5{fill:#959398;}
</style>
<g>
	<g>
		<linearGradient id="SVGID_1_" gradientUnits="userSpaceOnUse" x1="91.301" y1="41.4014" x2="173.4634" y2="41.4014">
			<stop  offset="0.2184" style="stop-color:#C12E35"/>
			<stop  offset="0.9954" style="stop-color:#6F1A1A"/>
		</linearGradient>
		<path class="st0" d="M169.6,49.8c-5,1.7-71.4,25.1-71.4,25.1l-1.5,0.5c-2.2,0.7-4.5-0.5-5.2-2.7c-0.7-2.2,0.3-4.3,0.3-4.3
			l16.5-55.9c0,0,0.5-2.1,2.1-3.8c1.4-1.4,3.6-1.8,5.6-1l4.6,2.6l49.1,30.3c0,0,1.6,0.9,2.3,1.5c0.9,0.8,1.4,1.9,1.4,3.1
			c0,1.6-0.9,3-2.2,3.7C170.3,49.5,169.3,49.8,169.6,49.8z"/>
		<radialGradient id="SVGID_2_" cx="113.6071" cy="20.269" r="62.9834" gradientUnits="userSpaceOnUse">
			<stop  offset="0" style="stop-color:#FFFFFF"/>
			<stop  offset="0.9958" style="stop-color:#FFFFFF;stop-opacity:0"/>
		</radialGradient>
		<path class="st1" d="M168.4,47.7c-2.1,0.7-70.2,24.9-70.2,24.9l-1.3,0.5c-3.3,1-4.6-1.5-4-3.9c1-3.6,15.8-55,15.8-55
			s0.6-2.8,1.9-4.2c0.6-0.6,1.6-0.9,2.5-0.8c2.7,0.3,6,3.1,26.4,15.4c13.3,8,28.5,17.3,30.1,18.2C172.5,44.4,171.6,46.6,168.4,47.7z
			"/>
		<linearGradient id="SVGID_3_" gradientUnits="userSpaceOnUse" x1="122.2934" y1="19.8981" x2="139.8122" y2="75.4578">
			<stop  offset="0.2184" style="stop-color:#C12E35"/>
			<stop  offset="0.9954" style="stop-color:#6F1A1A"/>
		</linearGradient>
		<path class="st2" d="M139.5,24.5c-23.7,3.9-41.8,23.4-41.8,46.9c0,0.5,0,0.9,0,1.4l0.1,0c0.2-0.1,0.4-0.2,0.4-0.2
			s68-24.1,70.2-24.9c3.2-1.1,4.1-3.3,1.2-5.1C153.6,33,139.5,24.5,139.5,24.5z"/>
	</g>
	<g>
		<path class="st3" d="M22,36.2c-0.6,0-3,0-3,0c-1.7,0-2.4,1.2-2.4,1.2l-1,2.4c5.4-2.1,6.8,0,6.4,1.2c-0.4,1.2-1,1.8-3.7,2.2
			c-2.7,0.4-7.4,0.4-9.3,5.2c-1.9,4.8,3.5,4.7,3.5,4.7c8.1,0,10.6-6.3,10.6-6.3s0.9-2.8,2-6.3C26.1,37.3,23.5,36.2,22,36.2z
			 M14.4,50.4c0,0-2.7,0.2-2.5-1.7s2.7-3.1,4.2-3.1c1.8-0.1,4.1-0.5,4.6-1.2C20.7,44.4,20.3,50.4,14.4,50.4z"/>
		<path class="st3" d="M54,40.5c1-3.2-1.6-4.3-3.1-4.3c-0.6,0-3,0-3,0c-1.7,0-2.4,1.2-2.4,1.2l-1,2.4c5.4-2.1,6.8,0,6.4,1.2
			c-0.4,1.2-1,1.8-3.7,2.2c-2.7,0.4-7.4,0.4-9.3,5.2C36,53.1,41.4,53,41.4,53c8.1,0,10.6-6.3,10.6-6.3S52.9,44,54,40.5z M43.3,50.4
			c0,0-2.7,0.2-2.5-1.7s2.7-3.1,4.2-3.1c1.8-0.1,4.1-0.5,4.6-1.2C49.6,44.4,49.2,50.4,43.3,50.4z"/>
		<path class="st3" d="M93.6,36.2c-0.6,0-3,0-3,0c-1.7,0-2.4,1.2-2.4,1.2l-1,2.4c5.4-2.1,6.8,0,6.4,1.2c-0.4,1.2-1,1.8-3.7,2.2
			c-2.7,0.4-7.4,0.4-9.3,5.2c-1.9,4.8,3.5,4.7,3.5,4.7c8.1,0,10.6-6.3,10.6-6.3s0.9-2.8,2-6.3C97.8,37.3,95.1,36.2,93.6,36.2z
			 M86,50.4c0,0-2.7,0.2-2.5-1.7s2.7-3.1,4.2-3.1c1.8-0.1,4.1-0.5,4.6-1.2C92.3,44.4,92,50.4,86,50.4z"/>
		<path class="st3" d="M63.1,36.2c-3.7,0-7.7,3-8.9,6.7L50.9,53L54,53l3.4-10.4c0.6-1.9,2.7-3.5,4.7-3.5c1.9,0,3,1.6,2.4,3.5
			l-3.4,10.3l3.2,0.1l3.3-10.2C68.8,39.2,66.8,36.2,63.1,36.2z"/>
		<polygon class="st3" points="38.8,36.2 30.2,49 30.2,36.2 26.8,36.2 27.4,53.1 30.5,53.1 42.3,36.2 		"/>
		<polygon class="st3" points="70,50 83.6,38.1 84.2,36.2 71.1,36.2 70.1,38.7 79.4,38.7 65.6,50.5 64.7,53.1 79.4,53.1 78.5,50 		
			"/>
	</g>
	<g>
		<path class="st4" d="M144.8,36.2c-5.2,0-9.5,3-10.7,6.7L130.9,53l3.1,0.1l3.4-10.4c0.6-1.9,3-3.5,6.5-3.5L144.8,36.2z"/>
		<path class="st4" d="M155.8,36.2l-3.4,10.4c-0.6,1.9-2.7,3.5-4.7,3.5c-1.9,0-3-1.6-2.4-3.5l3.4-10.3l-3.2-0.1l-3.3,10.2
			c-1.2,3.7,0.8,6.7,4.5,6.7c3.7,0,7.6-3,8.8-6.7l3.3-10.1L155.8,36.2z"/>
		<path class="st4" d="M111.4,35.9c-4.8,0.8-8.5,5.4-9.5,9.3l-4.6,13.8h3l2.5-7.8c0.7,0.9,1.7,1.6,3,1.9c3.4,0.8,8.8-1.5,11.4-7.2
			C119.9,39.9,116.8,35.1,111.4,35.9z M114.5,45c-1.4,3.8-4.7,5.9-7.1,5.7c-2.3-0.3-3.5-2.6-2.7-5.6c0.8-3,3.4-6.1,6.4-6.5
			C114.2,38.2,115.9,41.2,114.5,45z"/>
		<path class="st4" d="M126,49.8c-1.1,0.6-2.2,0.7-3.1,0.5c-1.7-0.4-2.8-1.6-2.5-3.9c0.1-0.4,0.3-0.8,0.7-0.8h10.8c0,0,0.7,0,1-1
			c1.7-5.4-1.4-9.3-6.3-8.2c-4.6,1-8,5.7-8.8,9.3c-0.8,3.7,0.7,6.7,3.6,7.3c1.3,0.3,2.9,0.1,4.6-0.6c0,0,0.3-0.9,0.6-1.7
			C126.9,49.5,126.1,49.7,126,49.8z M126.2,38.9c2.6-0.6,4.6,1,4.3,3.7c0,0.2-0.1,0.4-0.5,0.4c-1.3,0-8.2,0-8.2,0l-0.3,0
			C122.4,41.2,124.1,39.4,126.2,38.9z"/>
	</g>
	<g>
		<path class="st5" d="M13.3,57.5l-1.2,2.9h0.7l0.2-0.6h1.2l0.2,0.6h0.8l-1.2-2.9H13.3z M13.3,59.3l0.4-1.1l0.4,1.1H13.3z"/>
		<path class="st5" d="M18,59c-0.1-0.1-0.3-0.2-0.6-0.2l-0.6-0.1c-0.2,0-0.4-0.1-0.4-0.1c-0.1-0.1-0.2-0.1-0.2-0.2
			c0-0.1,0.1-0.2,0.2-0.3c0.1-0.1,0.3-0.1,0.4-0.1c0.2,0,0.3,0,0.4,0.1c0.2,0.1,0.3,0.2,0.3,0.4h0.7c0-0.3-0.1-0.5-0.4-0.7
			c-0.3-0.2-0.6-0.2-0.9-0.2c-0.4,0-0.8,0.1-1,0.3c-0.2,0.2-0.3,0.4-0.3,0.6c0,0.3,0.1,0.5,0.3,0.6c0.1,0.1,0.4,0.2,0.7,0.2l0.4,0.1
			c0.2,0,0.4,0.1,0.5,0.1c0.1,0.1,0.1,0.1,0.1,0.2c0,0.2-0.1,0.3-0.3,0.3c-0.1,0-0.2,0-0.4,0c-0.3,0-0.5-0.1-0.6-0.2
			c-0.1-0.1-0.1-0.2-0.1-0.3h-0.7c0,0.3,0.1,0.5,0.4,0.7c0.3,0.2,0.6,0.3,1.1,0.3c0.4,0,0.8-0.1,1-0.3c0.2-0.2,0.4-0.4,0.4-0.7
			C18.3,59.3,18.2,59.1,18,59z"/>
		<polygon class="st5" points="19.5,59.1 21.1,59.1 21.1,58.6 19.5,58.6 19.5,58 21.3,58 21.3,57.5 18.8,57.5 18.8,60.4 21.3,60.4 
			21.3,59.9 19.5,59.9 		"/>
		<path class="st5" d="M24.2,59c-0.1-0.1-0.3-0.2-0.6-0.2L23,58.6c-0.2,0-0.4-0.1-0.4-0.1c-0.1-0.1-0.2-0.1-0.2-0.2
			c0-0.1,0.1-0.2,0.2-0.3c0.1-0.1,0.3-0.1,0.4-0.1c0.2,0,0.3,0,0.4,0.1c0.2,0.1,0.3,0.2,0.3,0.4h0.7c0-0.3-0.1-0.5-0.4-0.7
			c-0.3-0.2-0.6-0.2-0.9-0.2c-0.4,0-0.8,0.1-1,0.3c-0.2,0.2-0.3,0.4-0.3,0.6c0,0.3,0.1,0.5,0.3,0.6c0.1,0.1,0.4,0.2,0.7,0.2l0.4,0.1
			c0.2,0,0.4,0.1,0.5,0.1c0.1,0.1,0.1,0.1,0.1,0.2c0,0.2-0.1,0.3-0.3,0.3c-0.1,0-0.2,0-0.4,0c-0.3,0-0.5-0.1-0.6-0.2
			c-0.1-0.1-0.1-0.2-0.1-0.3h-0.7c0,0.3,0.1,0.5,0.4,0.7c0.3,0.2,0.6,0.3,1.1,0.3c0.4,0,0.8-0.1,1-0.3c0.2-0.2,0.4-0.4,0.4-0.7
			C24.5,59.3,24.4,59.1,24.2,59z"/>
		<path class="st5" d="M26.4,57.4c-0.5,0-0.9,0.1-1.1,0.3c-0.3,0.3-0.5,0.7-0.5,1.2c0,0.5,0.2,0.9,0.5,1.2c0.3,0.2,0.6,0.3,1.1,0.3
			c0.5,0,0.9-0.1,1.1-0.3c0.3-0.3,0.5-0.7,0.5-1.2c0-0.5-0.2-0.9-0.5-1.2C27.2,57.5,26.9,57.4,26.4,57.4z M27.1,59.7
			c-0.2,0.2-0.4,0.3-0.7,0.3c-0.3,0-0.5-0.1-0.7-0.3c-0.2-0.2-0.3-0.4-0.3-0.8c0-0.3,0.1-0.6,0.3-0.8c0.2-0.2,0.4-0.3,0.7-0.3
			c0.3,0,0.5,0.1,0.7,0.3c0.2,0.2,0.2,0.4,0.2,0.8C27.3,59.3,27.2,59.5,27.1,59.7z"/>
		<path class="st5" d="M31.1,60.2c0,0,0-0.1,0-0.3v-0.2c0-0.2,0-0.4-0.1-0.5c-0.1-0.1-0.2-0.2-0.3-0.2c0.2-0.1,0.3-0.1,0.4-0.3
			c0.1-0.1,0.1-0.3,0.1-0.4c0-0.1,0-0.2-0.1-0.3c0-0.1-0.1-0.2-0.2-0.2c-0.1-0.1-0.2-0.2-0.3-0.2c-0.1,0-0.3-0.1-0.5-0.1h-1.6v2.9
			h0.7v-1.1h0.7c0.2,0,0.3,0,0.4,0.1c0.1,0.1,0.1,0.2,0.1,0.4l0,0.3c0,0.1,0,0.2,0,0.3c0,0,0,0.1,0,0.2h0.8v-0.1
			C31.2,60.3,31.1,60.2,31.1,60.2z M30.3,58.7c-0.1,0-0.2,0-0.3,0h-0.8V58H30c0.1,0,0.3,0,0.3,0.1c0.1,0.1,0.2,0.2,0.2,0.4
			C30.5,58.6,30.4,58.7,30.3,58.7z"/>
		<polygon class="st5" points="32.9,56.6 32.1,56.6 31.7,57.2 32.2,57.2 		"/>
		<rect x="31.7" y="57.5" class="st5" width="0.7" height="2.9"/>
		<path class="st5" d="M34,57.5l-1.2,2.9h0.7l0.2-0.6H35l0.2,0.6H36l-1.2-2.9H34z M33.9,59.3l0.4-1.1l0.4,1.1H33.9z"/>
		<path class="st5" d="M36.3,60.4h0.4c0,0.1,0,0.2-0.1,0.3c-0.1,0.1-0.2,0.1-0.3,0.2v0.2c0,0,0.1,0,0.2-0.1c0.1,0,0.2-0.1,0.3-0.2
			c0.1-0.1,0.1-0.2,0.2-0.3c0-0.1,0-0.2,0-0.3v-0.5h-0.7V60.4z"/>
		<path class="st5" d="M41.4,57.9c-0.1-0.2-0.3-0.3-0.6-0.4c-0.1,0-0.3-0.1-0.5-0.1h-1.5v2.9h1.5c0.5,0,0.9-0.2,1.1-0.5
			c0.2-0.3,0.3-0.6,0.3-1c0-0.2,0-0.3-0.1-0.5C41.6,58.2,41.5,58.1,41.4,57.9z M40.9,59.5c-0.1,0.3-0.4,0.4-0.7,0.4h-0.7V58h0.7
			c0.3,0,0.5,0.1,0.6,0.2c0.1,0.2,0.2,0.4,0.2,0.7C41,59.1,40.9,59.3,40.9,59.5z"/>
		<rect x="42.1" y="57.5" class="st5" width="0.7" height="2.9"/>
		<path class="st5" d="M45.7,59c-0.1-0.1-0.3-0.2-0.6-0.2l-0.6-0.1c-0.2,0-0.4-0.1-0.4-0.1c-0.1-0.1-0.2-0.1-0.2-0.2
			c0-0.1,0.1-0.2,0.2-0.3c0.1-0.1,0.3-0.1,0.4-0.1c0.2,0,0.3,0,0.4,0.1c0.2,0.1,0.3,0.2,0.3,0.4h0.7c0-0.3-0.1-0.5-0.4-0.7
			c-0.3-0.2-0.6-0.2-0.9-0.2c-0.4,0-0.8,0.1-1,0.3c-0.2,0.2-0.3,0.4-0.3,0.6c0,0.3,0.1,0.5,0.3,0.6c0.1,0.1,0.4,0.2,0.7,0.2l0.4,0.1
			c0.2,0,0.4,0.1,0.5,0.1c0.1,0.1,0.1,0.1,0.1,0.2c0,0.2-0.1,0.3-0.3,0.3c-0.1,0-0.2,0-0.4,0c-0.3,0-0.5-0.1-0.6-0.2
			c-0.1-0.1-0.1-0.2-0.1-0.3h-0.7c0,0.3,0.1,0.5,0.4,0.7c0.3,0.2,0.6,0.3,1.1,0.3c0.4,0,0.8-0.1,1-0.3c0.2-0.2,0.4-0.4,0.4-0.7
			C46,59.3,45.9,59.1,45.7,59z"/>
		<polygon class="st5" points="47.2,59.1 48.8,59.1 48.8,58.6 47.2,58.6 47.2,58 48.9,58 48.9,57.5 46.5,57.5 46.5,60.4 49,60.4 
			49,59.9 47.2,59.9 		"/>
		<path class="st5" d="M50.4,57.1c0,0,0.1,0,0.1,0c0,0,0,0,0.1,0c0,0,0,0,0.1,0l0.2,0.1c0,0,0.1,0,0.1,0c0.1,0,0.2,0,0.2,0
			c0.2,0,0.3,0,0.4-0.1c0.1-0.1,0.1-0.2,0.2-0.3h-0.3c0,0,0,0.1-0.1,0.1c0,0-0.1,0.1-0.2,0.1c0,0,0,0-0.1,0c0,0-0.1,0-0.1,0
			l-0.2-0.1c0,0-0.1,0-0.1,0s-0.1,0-0.1,0c-0.2,0-0.3,0.1-0.4,0.2c-0.1,0.1-0.1,0.2-0.1,0.3h0.3C50.3,57.2,50.4,57.1,50.4,57.1z"/>
		<polygon class="st5" points="51.6,59.5 50.2,57.5 49.5,57.5 49.5,60.4 50.1,60.4 50.1,58.3 51.5,60.4 52.2,60.4 52.2,57.5 
			51.6,57.5 		"/>
		<path class="st5" d="M54.3,57.4c-0.5,0-0.9,0.1-1.1,0.3c-0.3,0.3-0.5,0.7-0.5,1.2c0,0.5,0.2,0.9,0.5,1.2c0.3,0.2,0.6,0.3,1.1,0.3
			c0.5,0,0.9-0.1,1.1-0.3c0.3-0.3,0.5-0.7,0.5-1.2c0-0.5-0.2-0.9-0.5-1.2C55.2,57.5,54.8,57.4,54.3,57.4z M55,59.7
			c-0.2,0.2-0.4,0.3-0.7,0.3s-0.5-0.1-0.7-0.3c-0.2-0.2-0.3-0.4-0.3-0.8c0-0.3,0.1-0.6,0.3-0.8c0.2-0.2,0.4-0.3,0.7-0.3
			s0.5,0.1,0.7,0.3c0.2,0.2,0.2,0.4,0.2,0.8C55.2,59.3,55.2,59.5,55,59.7z"/>
		<polygon class="st5" points="58.4,59.1 60,59.1 60,58.6 58.4,58.6 58.4,58 60.1,58 60.1,57.5 57.7,57.5 57.7,60.4 60.2,60.4 
			60.2,59.9 58.4,59.9 		"/>
		<rect x="61.9" y="57.5" class="st5" width="0.7" height="2.9"/>
		<path class="st5" d="M64.8,59.8l-0.6-2.3h-1v2.9h0.7v-2c0-0.1,0-0.1,0-0.2c0-0.1,0-0.2,0-0.2l0.6,2.4h0.7l0.6-2.4
			c0,0.1,0,0.1,0,0.2c0,0.1,0,0.2,0,0.2v2h0.7v-2.9h-1L64.8,59.8z"/>
		<path class="st5" d="M69.3,57.7c-0.2-0.2-0.5-0.2-0.8-0.2H67v2.9h0.7v-1h0.7c0.4,0,0.7-0.1,0.8-0.2c0.2-0.1,0.3-0.4,0.3-0.7
			C69.6,58.1,69.5,57.9,69.3,57.7z M68.7,58.8c-0.1,0.1-0.2,0.1-0.4,0.1h-0.6V58h0.6c0.2,0,0.3,0,0.4,0.1c0.1,0.1,0.1,0.2,0.1,0.3
			C68.9,58.6,68.8,58.7,68.7,58.8z"/>
		<path class="st5" d="M72.7,60.2c0,0,0-0.1,0-0.3v-0.2c0-0.2,0-0.4-0.1-0.5c-0.1-0.1-0.2-0.2-0.3-0.2c0.2-0.1,0.3-0.1,0.4-0.3
			c0.1-0.1,0.1-0.3,0.1-0.4c0-0.1,0-0.2-0.1-0.3c0-0.1-0.1-0.2-0.2-0.2c-0.1-0.1-0.2-0.2-0.3-0.2c-0.1,0-0.3-0.1-0.5-0.1h-1.6v2.9
			h0.7v-1.1h0.7c0.2,0,0.3,0,0.4,0.1c0.1,0.1,0.1,0.2,0.1,0.4l0,0.3c0,0.1,0,0.2,0,0.3c0,0,0,0.1,0,0.2h0.8v-0.1
			C72.8,60.3,72.7,60.2,72.7,60.2z M71.9,58.7c-0.1,0-0.2,0-0.3,0h-0.8V58h0.8c0.1,0,0.3,0,0.3,0.1c0.1,0.1,0.2,0.2,0.2,0.4
			C72.1,58.6,72,58.7,71.9,58.7z"/>
		<polygon class="st5" points="74.1,59.1 75.8,59.1 75.8,58.6 74.1,58.6 74.1,58 75.9,58 75.9,57.5 73.4,57.5 73.4,60.4 76,60.4 
			76,59.9 74.1,59.9 		"/>
		<path class="st5" d="M78.8,59c-0.1-0.1-0.3-0.2-0.6-0.2l-0.6-0.1c-0.2,0-0.4-0.1-0.4-0.1c-0.1-0.1-0.2-0.1-0.2-0.2
			c0-0.1,0.1-0.2,0.2-0.3c0.1-0.1,0.3-0.1,0.4-0.1c0.2,0,0.3,0,0.4,0.1c0.2,0.1,0.3,0.2,0.3,0.4H79c0-0.3-0.1-0.5-0.4-0.7
			c-0.3-0.2-0.6-0.2-0.9-0.2c-0.4,0-0.8,0.1-1,0.3c-0.2,0.2-0.3,0.4-0.3,0.6c0,0.3,0.1,0.5,0.3,0.6c0.1,0.1,0.4,0.2,0.7,0.2l0.4,0.1
			c0.2,0,0.4,0.1,0.5,0.1c0.1,0.1,0.1,0.1,0.1,0.2c0,0.2-0.1,0.3-0.3,0.3c-0.1,0-0.2,0-0.4,0c-0.3,0-0.5-0.1-0.6-0.2
			C77,59.7,77,59.6,77,59.5h-0.7c0,0.3,0.1,0.5,0.4,0.7c0.3,0.2,0.6,0.3,1.1,0.3c0.4,0,0.8-0.1,1-0.3c0.2-0.2,0.4-0.4,0.4-0.7
			C79.1,59.3,79,59.1,78.8,59z"/>
		<rect x="79.5" y="57.5" class="st5" width="0.7" height="2.9"/>
		<polygon class="st5" points="83,56.6 82.3,56.6 81.9,57.2 82.3,57.2 		"/>
		<path class="st5" d="M82.3,57.4c-0.5,0-0.9,0.1-1.1,0.3c-0.3,0.3-0.5,0.7-0.5,1.2c0,0.5,0.2,0.9,0.5,1.2c0.3,0.2,0.6,0.3,1.1,0.3
			c0.5,0,0.9-0.1,1.1-0.3c0.3-0.3,0.5-0.7,0.5-1.2c0-0.5-0.2-0.9-0.5-1.2C83.1,57.5,82.7,57.4,82.3,57.4z M82.9,59.7
			c-0.2,0.2-0.4,0.3-0.7,0.3c-0.3,0-0.5-0.1-0.7-0.3c-0.2-0.2-0.3-0.4-0.3-0.8c0-0.3,0.1-0.6,0.3-0.8c0.2-0.2,0.4-0.3,0.7-0.3
			c0.3,0,0.5,0.1,0.7,0.3c0.2,0.2,0.2,0.4,0.2,0.8C83.2,59.3,83.1,59.5,82.9,59.7z"/>
		<polygon class="st5" points="86.4,57.5 86.4,59.5 85.1,57.5 84.3,57.5 84.3,60.4 85,60.4 85,58.3 86.4,60.4 87.1,60.4 87.1,57.5 
					"/>
	</g>
</g>
</svg>
